<?xml version="1.0" standalone="no"?>
<!DOCTYPE svg PUBLIC "-//W3C//DTD SVG 20010904//EN"
 "http://www.w3.org/TR/2001/REC-SVG-20010904/DTD/svg10.dtd">
<svg version="1.0" xmlns="http://www.w3.org/2000/svg"
 width="512.000000pt" height="512.000000pt" viewBox="0 0 512.000000 512.000000"
 preserveAspectRatio="xMidYMid meet">
<metadata>
Created by potrace 1.14, written by Peter Selinger 2001-2017
</metadata>
<g transform="translate(0.000000,512.000000) scale(0.100000,-0.100000)"
fill="#000000" stroke="none">
<path d="M3990 5117 c-3 -2 -27 -7 -55 -10 -215 -25 -454 -183 -585 -387 -136
-210 -174 -485 -100 -722 l17 -57 -161 -96 c-88 -53 -361 -217 -606 -365 -487
-294 -657 -396 -702 -422 l-30 -16 -46 56 c-119 147 -263 246 -437 298 -75 22
-113 27 -225 30 -116 3 -148 0 -225 -20 -164 -43 -285 -112 -403 -228 -387
-382 -328 -1024 122 -1330 383 -262 895 -177 1180 196 l34 44 53 -34 c30 -18
63 -38 74 -44 11 -5 37 -20 57 -32 399 -245 564 -344 575 -346 7 -2 13 -8 13
-13 0 -5 4 -9 9 -9 5 0 56 -29 113 -64 57 -35 216 -132 355 -216 250 -151 252
-152 241 -178 -29 -75 -48 -210 -44 -317 3 -60 8 -121 11 -135 55 -202 112
-308 231 -436 117 -124 311 -226 483 -253 60 -10 253 -7 311 4 105 20 261 91
349 159 225 174 344 415 344 696 0 242 -89 452 -263 620 -167 161 -366 242
-600 243 -283 0 -518 -119 -706 -358 -34 -43 -27 -44 -129 20 -38 24 -99 61
-134 82 -108 65 -121 72 -291 175 -91 55 -176 108 -190 117 -14 8 -34 21 -45
27 -11 6 -103 62 -205 124 -102 62 -259 157 -350 212 -91 55 -168 103 -172
107 -4 3 1 36 12 71 28 91 35 141 35 250 0 114 -10 181 -36 262 -17 50 -18 63
-7 70 7 4 186 112 398 240 212 127 404 244 427 260 23 15 43 28 46 28 2 0 98
57 213 126 115 70 223 135 240 144 17 10 61 36 96 58 l65 39 44 -59 c114 -158
308 -281 509 -324 96 -21 263 -21 358 0 162 35 302 111 421 226 301 292 353
744 125 1097 -20 32 -76 97 -124 144 -159 157 -335 233 -570 245 -63 3 -117 4
-120 1z"/>
</g>
</svg>
